<svg id="correct_2_" data-name="correct (2)" xmlns="http://www.w3.org/2000/svg" width="18.566" height="19.111" viewBox="0 0 18.566 19.111">
  <path id="Path_1121" data-name="Path 1121" d="M9.283,0A9.433,9.433,0,0,0,0,9.556a9.433,9.433,0,0,0,9.283,9.556,9.433,9.433,0,0,0,9.283-9.556A9.433,9.433,0,0,0,9.283,0Zm0,0" fill="#9f111b"/>
  <path id="Path_1122" data-name="Path 1122" d="M150.191,166.688l-5.028,5.176a.757.757,0,0,1-1.094,0l-2.514-2.588a.812.812,0,0,1,0-1.126.757.757,0,0,1,1.094,0l1.967,2.025,4.481-4.613a.757.757,0,0,1,1.094,0A.812.812,0,0,1,150.191,166.688Zm0,0" transform="translate(-136.204 -159.157)" fill="#fafafa"/>
</svg>
