<svg xmlns="http://www.w3.org/2000/svg" width="21" height="19.508" viewBox="0 0 21 19.508">
  <g id="_002-motorcycle" data-name="002-motorcycle" transform="translate(0 -15.088)">
    <path id="Path_26507" data-name="Path 26507" d="M20.459,121.527a2.077,2.077,0,0,0-.056-.946c-.614-2.211-2.45-6.737-3.976-8.6a1.109,1.109,0,0,0-1.619,0,1.138,1.138,0,0,0-.329.7.8.8,0,0,0-.439-.209s-3.871-.482-3.918-.476H8.36a.656.656,0,0,0-.741.741v5.651H6.327v-6.059a.544.544,0,0,0-.544-.544H.544a.544.544,0,0,0-.544.544s0,8.509,0,9.059a1.145,1.145,0,0,0,1.145,1.145H2.27a3.093,3.093,0,1,0,6.008,0H11.74v.758a1.089,1.089,0,0,0,1.087,1.087h.021a1.08,1.08,0,0,0,1.079-1.09l-.008-.756H14.9a3.094,3.094,0,1,0,5.556-1.009Zm-2.552.578a1.167,1.167,0,1,1-1.168,1.167A1.169,1.169,0,0,1,17.907,122.106ZM6.441,123.273a1.168,1.168,0,1,1-1.167-1.167A1.169,1.169,0,0,1,6.441,123.273Zm7.437-4.715a1.1,1.1,0,0,0-1.1-1.085H10.973v-3.695l.885.109a.736.736,0,0,0,.719.579h3.1l.24,2-2.029,2.657Z" transform="translate(0 -91.769)" fill="#9f111b"/>
    <path id="Path_26508" data-name="Path 26508" d="M140.8,19.438a2.175,2.175,0,0,0,2.129-2.62l.477-.009a.859.859,0,0,0,.713-.46l.16-.337a.446.446,0,0,0-.421-.665l-2.022,0a2.175,2.175,0,1,0-1.036,4.087Z" transform="translate(-131.77)" fill="#9f111b"/>
  </g>
</svg>
