<svg xmlns="http://www.w3.org/2000/svg" width="15" height="15" viewBox="0 0 15 15">
  <g id="Group" transform="translate(-44 -721)">
    <path id="Vector" d="M2.637,3.076V2.637h.879V1.758H2.637V1.318A1.318,1.318,0,0,0,0,1.318V3.076a1.318,1.318,0,0,0,2.637,0Zm-.879,0a.439.439,0,1,1-.879,0V2.637h.879Zm0-1.318H.879V1.318a.439.439,0,1,1,.879,0Z" transform="translate(49.332 721)" fill="#a0131d"/>
    <path id="Vector-2" data-name="Vector" d="M12.7,4.493l-.265-1.857h.812V0H11.924a1.32,1.32,0,0,0-1.243.879H7.893a1.318,1.318,0,0,0-1.683-.8V0H.879V4.395H0v.879H1.48A3.99,3.99,0,0,0,0,8.379a2.221,2.221,0,0,0,2.2,2.227A2.216,2.216,0,0,0,4.351,8.818h6.3A2.195,2.195,0,0,0,15,8.379V7.5a3.114,3.114,0,0,0-2.3-3.007ZM11.924.879h.439v.879h-.439a.439.439,0,1,1,0-.879ZM1.758.879H5.332v.879H1.758Zm0,1.758H5.332V4.395H1.758ZM2.2,9.727A1.342,1.342,0,0,1,.954,8.818H3.44A1.342,1.342,0,0,1,2.2,9.727ZM7.09,7.939H.91A3.09,3.09,0,0,1,3.955,5.273H7.09Zm1.758,0H7.969V4.395H6.65a.44.44,0,0,1-.439-.439V3.44a1.312,1.312,0,0,0,.439.076H8.408a.44.44,0,0,1,.439.439Zm-2.2-5.3A.44.44,0,0,1,6.211,2.2V1.318a.439.439,0,1,1,.879,0v.439h3.44a1.321,1.321,0,0,1-1.243.879Zm3.955.438V4.834A1.368,1.368,0,0,1,9.727,6.1V3.955a1.311,1.311,0,0,0-.086-.468,2.187,2.187,0,0,0,.965-.412Zm.044,4.864H9.727V7.016a2.232,2.232,0,0,0,1.758-2.182V2.561l.05.017c.66,4.617.135.949.38,2.672l.328.047a2.195,2.195,0,0,1,1.62,1.157A2.2,2.2,0,0,0,10.65,7.939ZM12.8,9.727a1.351,1.351,0,0,1-1.318-1.348,1.319,1.319,0,0,1,.708-1.168l.176,1.23.87-.124-.176-1.23a1.32,1.32,0,0,1,1.059,1.293A1.351,1.351,0,0,1,12.8,9.727Z" transform="translate(44 725.395)" fill="#a0131d"/>
  </g>
</svg>
