<svg xmlns="http://www.w3.org/2000/svg" width="14.805" height="10.246" viewBox="0 0 14.805 10.246">
  <g id="email" transform="translate(-1.8 -12.308)">
    <path id="Path_26647" data-name="Path 26647" d="M15.531,22.354H2.874A.875.875,0,0,1,2,21.48v-8.1a.875.875,0,0,1,.874-.874H15.53a.875.875,0,0,1,.875.874v8.1A.875.875,0,0,1,15.531,22.354ZM2.874,12.92a.463.463,0,0,0-.463.463v8.1a.463.463,0,0,0,.463.463H15.53a.463.463,0,0,0,.463-.463v-8.1a.463.463,0,0,0-.463-.463Z" fill="#9e9e9e" stroke="#707070" stroke-width="0.4"/>
    <path id="Path_26648" data-name="Path 26648" d="M10.1,18.616a.947.947,0,0,1-.57-.189L3.212,13.67a.206.206,0,0,1,.247-.329L9.777,18.1a.538.538,0,0,0,.645,0l6.319-4.756a.206.206,0,1,1,.247.329l-6.318,4.756a.947.947,0,0,1-.569.189Z" transform="translate(-0.897 -0.629)" fill="#9e9e9e" stroke="#707070" stroke-width="0.4"/>
    <path id="Path_26649" data-name="Path 26649" d="M2.889,38.946a.206.206,0,0,1-.133-.363l5.676-4.809a.206.206,0,1,1,.266.314L3.022,38.9A.2.2,0,0,1,2.889,38.946Z" transform="translate(-0.543 -16.852)" fill="#9e9e9e" stroke="#707070" stroke-width="0.4"/>
    <path id="Path_26650" data-name="Path 26650" d="M47.618,38.946a.2.2,0,0,1-.133-.049l-5.676-4.809a.206.206,0,1,1,.266-.314l5.676,4.809a.206.206,0,0,1-.133.363Z" transform="translate(-31.559 -16.852)" fill="#9e9e9e" stroke="#707070" stroke-width="0.4"/>
  </g>
</svg>
