<svg xmlns="http://www.w3.org/2000/svg" width="23.563" height="16.391" viewBox="0 0 23.563 16.391">
  <g id="Group_14921" data-name="Group 14921" transform="translate(1.281 0.891)">
    <path id="Path_26510" data-name="Path 26510" d="M96.347,64.263a.986.986,0,0,0-.721-.3,2.692,2.692,0,0,0-.872.336q-.664.336-1.409.752a10.146,10.146,0,0,1-1.761.752,6.019,6.019,0,0,1-1.881.336,3.114,3.114,0,0,1-1.409-.3,28.486,28.486,0,0,0-3.505-1.409,10.7,10.7,0,0,0-3.2-.464,15.2,15.2,0,0,0-6.739,1.921,13.65,13.65,0,0,0-1.265.688,1.075,1.075,0,0,0-.5.88V79.326a1.04,1.04,0,0,0,1.025,1.025,1.127,1.127,0,0,0,.528-.144,16.417,16.417,0,0,1,7.427-2.337,7.515,7.515,0,0,1,2.281.352,9.829,9.829,0,0,1,1.849.768,10.908,10.908,0,0,0,1.737.769,5.941,5.941,0,0,0,1.977.352,12.964,12.964,0,0,0,5.907-1.857,2.324,2.324,0,0,0,.632-.44.874.874,0,0,0,.2-.616V64.983A.984.984,0,0,0,96.347,64.263Z" transform="translate(-74.369 -64.85)" fill="#9f111b"/>
  </g>
</svg>
