<svg id="Group_15079" data-name="Group 15079" xmlns="http://www.w3.org/2000/svg" width="199.895" height="79.612" viewBox="0 0 199.895 79.612">
  <g id="Group_15078" data-name="Group 15078" transform="translate(0 0)">
    <g id="Group_15077" data-name="Group 15077" transform="translate(0 0)">
      <g id="Group_15076" data-name="Group 15076" transform="translate(0)">
        <g id="Group_15073" data-name="Group 15073" transform="translate(0 0)">
          <g id="Group_15072" data-name="Group 15072" transform="translate(0 0)">
            <path id="rnd1" d="M13.288,73.314h7.961v5.307a1.327,1.327,0,0,0,1.327,1.327h5.307a1.327,1.327,0,0,0,1.327-1.327V73.314h7.961a1.327,1.327,0,0,0,1.308-1.109L49.095,8.515a1.327,1.327,0,0,0-1.308-1.544H29.21V1.663A1.327,1.327,0,0,0,27.883.337H22.576a1.327,1.327,0,0,0-1.327,1.327V6.971H2.673A1.327,1.327,0,0,0,1.365,8.515l10.615,63.69A1.327,1.327,0,0,0,13.288,73.314Zm13.269,3.981H23.9V73.314h2.654ZM23.9,2.99h2.654V6.971H23.9Zm-13.03,46.44h3.742V46.777H10.431L9.546,41.47h11.7V38.816H9.1l-.885-5.307h9.049V30.855H7.777l-.885-5.307h5.069V22.893H6.45l-.884-5.307h7.721V14.932H5.124L4.24,9.625H46.219l-.884,5.307H41.152v2.654h3.74L36.048,70.661H14.412l-.885-5.307h3.742V62.7H13.085L12.2,57.392h7.722V54.738H11.758Z" transform="translate(-1.347 -0.337)" fill="#9f111b" fill-rule="evenodd"/>
            <rect id="rnd2" width="7.961" height="2.654" transform="translate(13.268 22.557)" fill="#9f111b"/>
            <rect id="rnd3" width="5.307" height="2.654" transform="translate(18.576 62.363)" fill="#9f111b"/>
            <rect id="rnd4" width="2.654" height="2.654" transform="translate(21.229 54.402)" fill="#9f111b"/>
            <rect id="rnd5" width="7.961" height="2.654" transform="translate(15.922 46.44)" fill="#9f111b"/>
            <rect id="rnd6" width="5.307" height="2.654" transform="translate(18.576 30.518)" fill="#9f111b"/>
            <rect id="rnd7" width="9.288" height="2.654" transform="translate(14.595 14.596)" fill="#9f111b"/>
            <rect id="rnd8" width="3.981" height="2.654" transform="translate(33.171 30.518)" fill="#9f111b"/>
            <rect id="rnd9" width="3.981" height="2.654" transform="translate(29.19 46.44)" fill="#9f111b"/>
            <rect id="rnd10" width="3.981" height="2.654" transform="translate(27.864 22.557)" fill="#9f111b"/>
            <rect id="rnd11" width="3.981" height="2.654" transform="translate(29.19 62.363)" fill="#9f111b"/>
            <path id="rnd12" d="M9.069,55.58h2.654V68.028l-1.015.508a2.967,2.967,0,0,0,1.327,5.619h7.649a1.327,1.327,0,0,0,1.327-1.327V2.505a1.327,1.327,0,0,0-1.327-1.327A11.955,11.955,0,0,0,7.742,13.12V54.253A1.327,1.327,0,0,0,9.069,55.58ZM18.357,71.5H12.036a.313.313,0,0,1-.133-.593l1.746-.873a1.327,1.327,0,0,0,.727-1.188V55.58h3.981ZM10.4,13.12a9.3,9.3,0,0,1,7.961-9.194v49H10.4Z" transform="translate(42.678 5.456)" fill="#9f111b" fill-rule="evenodd"/>
          </g>
        </g>
        <g id="Group_15074" data-name="Group 15074" transform="translate(85.895 8.985)">
          <text id="H_A_M_D" data-name="H A M D" transform="translate(0 24)" fill="#9f111b" font-size="31" font-family="Helvetica"><tspan x="0" y="0">H A M D</tspan></text>
        </g>
        <g id="Group_15075" data-name="Group 15075" transform="translate(87.801 37.779)">
          <text id="S_._N_._S" data-name="S . N . S" transform="translate(0 12)" fill="#9f111b" font-size="15" font-family="Helvetica-Bold, Helvetica" font-weight="700" letter-spacing="0.15em"><tspan x="0" y="0">S . N . S</tspan></text>
        </g>
      </g>
    </g>
  </g>
</svg>
