<svg id="Group_15089" data-name="Group 15089" xmlns="http://www.w3.org/2000/svg" width="13.324" height="18.035" viewBox="0 0 13.324 18.035">
  <g id="Group_15088" data-name="Group 15088">
    <path id="Path_26653" data-name="Path 26653" d="M54.742,0A6.67,6.67,0,0,0,48.08,6.662a7.686,7.686,0,0,0,.565,2.565,10.743,10.743,0,0,0,.77,1.44l4.568,6.921a.869.869,0,0,0,1.518,0l4.568-6.922a10.7,10.7,0,0,0,.77-1.44A7.685,7.685,0,0,0,61.4,6.662,6.67,6.67,0,0,0,54.742,0Zm5.375,8.923a9.845,9.845,0,0,1-.7,1.313l-4.568,6.922c-.09.137-.119.137-.209,0L50.07,10.236a9.849,9.849,0,0,1-.7-1.313,6.977,6.977,0,0,1-.5-2.26,5.878,5.878,0,0,1,11.757,0A6.983,6.983,0,0,1,60.117,8.923Z" transform="translate(-48.08)"/>
    <path id="Path_26654" data-name="Path 26654" d="M115.607,64.008a3.527,3.527,0,1,0,3.527,3.527A3.531,3.531,0,0,0,115.607,64.008Zm0,6.27a2.743,2.743,0,1,1,2.743-2.743A2.746,2.746,0,0,1,115.607,70.278Z" transform="translate(-108.945 -60.872)"/>
  </g>
</svg>
