<svg xmlns="http://www.w3.org/2000/svg" width="46.667" height="37.935" viewBox="0 0 46.667 37.935">
  <g id="money_1_" data-name="money (1)" transform="translate(0 -37.989)">
    <g id="Group_15085" data-name="Group 15085" transform="translate(0 37.989)">
      <path id="Path_26645" data-name="Path 26645" d="M46.542,61.094a.92.92,0,0,0-.449-.388l-3.347-1.37,3.466-2.041a.92.92,0,0,0-.12-1.646l-3.347-1.37,3.466-2.041a.932.932,0,0,0-.129-1.655l-13.176-5.4-6.492-2.758a.92.92,0,0,0-.331-.064l-10.574-4.3a.92.92,0,0,0-.8.046L.541,46.068a.92.92,0,0,0,.092,1.683l3.421,1.416L.541,51.125a.919.919,0,0,0,.092,1.646l3.421,1.416L.56,56.146a.919.919,0,0,0,.074,1.719l3.421,1.407L.56,61.23a.919.919,0,0,0,.092,1.646l11.889,5.048a.912.912,0,0,0,.138.083l6.5,2.758L31.133,75.85a.919.919,0,0,0,.828-.055l14.252-8.386a.92.92,0,0,0-.12-1.646l-3.347-1.37,3.466-2.041A.92.92,0,0,0,46.542,61.094Zm-2.867-4.461L31.418,63.851,20.458,59.2V56.136L31.124,60.67a.915.915,0,0,0,.828-.055l8.8-5.177Zm.037-5.066L31.418,58.785l-9.958-4.23,11.218-7.494ZM12.09,65.754,3.07,61.92l3.1-1.738L12.1,62.7Zm0-5.057L3.07,56.863l3.1-1.756L12.1,57.626Zm0-5.057L3.07,51.815l3.1-1.738L12.1,52.6ZM3.07,46.758l12.156-6.832,8.818,3.614L12.936,50.95Zm15.953,7.227a.919.919,0,0,0-.4.763V68.54l-4.68-1.986V52.5l12.183-8.119,4.533,1.839ZM43.675,66.747,31.418,73.956,20.458,69.3V66.251l10.666,4.487a.919.919,0,0,0,.828-.055l8.8-5.177ZM31.418,68.9l-10.96-4.653V61.194l10.675,4.533a.919.919,0,0,0,.828-.055l8.8-5.177,2.915,1.2Z" transform="translate(0 -37.989)" fill="#9f111b"/>
    </g>
  </g>
</svg>
