<svg xmlns="http://www.w3.org/2000/svg" width="20.999" height="21" viewBox="0 0 20.999 21">
  <path id="pencil" d="M25.474,7.9,22.223,4.652a.309.309,0,0,0-.437,0L6.77,19.668a.291.291,0,0,0-.021.026l-.014.017a.309.309,0,0,0-.034.062l-1.222,3.1h0l-.893,2.263a.309.309,0,0,0,.4.4l2.263-.892,3.1-1.223a.313.313,0,0,0,.062-.034l.018-.014.026-.021,10.905-10.9,4.11-4.111a.309.309,0,0,0,0-.438ZM21.144,11.8,18.332,8.982l.88-.881,2.812,2.812ZM10.24,22.7l-.618-.618L20.088,11.613l.618.618ZM8.483,20.943,18.951,10.476l.7.7L9.184,21.644ZM7.427,19.887,17.895,9.42l.618.618L8.046,20.506ZM5.88,23.544l.7.7-1.16.458ZM7.21,24,6.128,22.917l.977-2.478.722.722L8.964,22.3l.722.722ZM22.462,10.478,19.649,7.665l2.356-2.356,2.813,2.812Z" transform="translate(-4.565 -4.562)"/>
</svg>
