<svg xmlns="http://www.w3.org/2000/svg" width="23.401" height="22.775" viewBox="0 0 23.401 22.775">
  <g id="shopping-cart" transform="translate(0 -6.028)">
    <g id="Group_15048" data-name="Group 15048" transform="translate(0 6.028)">
      <g id="Group_15047" data-name="Group 15047">
        <path id="Path_26617" data-name="Path 26617" d="M99.1,350.322a2.443,2.443,0,1,0,2.443,2.443A2.443,2.443,0,0,0,99.1,350.322Zm0,3.8a1.357,1.357,0,1,1,1.357-1.357A1.357,1.357,0,0,1,99.1,354.122Z" transform="translate(-91.631 -332.433)"/>
        <path id="Path_26618" data-name="Path 26618" d="M297.627,350.322a2.443,2.443,0,1,0,2.443,2.443A2.443,2.443,0,0,0,297.627,350.322Zm0,3.8a1.357,1.357,0,1,1,1.357-1.357A1.357,1.357,0,0,1,297.627,354.122Z" transform="translate(-279.847 -332.433)"/>
        <path id="Path_26619" data-name="Path 26619" d="M23.291,9.665a.679.679,0,0,0-.434-.217L5.185,9.2,4.7,7.711A2.5,2.5,0,0,0,2.362,6.028H.543a.543.543,0,0,0,0,1.086H2.362a1.412,1.412,0,0,1,1.3.95l3.447,10.4-.271.624a2.606,2.606,0,0,0,.244,2.362,2.524,2.524,0,0,0,2.036,1.14H19.68a.543.543,0,1,0,0-1.086H9.121a1.384,1.384,0,0,1-1.14-.651,1.493,1.493,0,0,1-.136-1.3l.217-.489L19.49,17.863a2.986,2.986,0,0,0,2.579-2.28l1.3-5.456A.461.461,0,0,0,23.291,9.665Zm-2.28,5.673a1.846,1.846,0,0,1-1.656,1.439L8.062,17.945,5.538,10.29l16.64.244Z" transform="translate(0 -6.028)"/>
      </g>
    </g>
  </g>
</svg>
