<svg xmlns="http://www.w3.org/2000/svg" width="36.972" height="29.298" viewBox="0 0 36.972 29.298">
  <g id="sim" transform="translate(0 0)">
    <rect id="Прямоугольник_1866" data-name="Прямоугольник 1866" width="36.972" height="29.298" rx="7" transform="translate(0 0)" fill="#e1e1e1"/>
    <path id="Контур_2976" data-name="Контур 2976" d="M99.184,126.617v-.676H92.412v-8.556h-.677v8.556H86.248a6.054,6.054,0,0,0-5.214-4.218v-4.338H80.36v4.292a6.06,6.06,0,0,0-5.67,4.265H69.706v-8.556h-.675v8.556H62.213v.676h6.818V136.2H62.213v.677h6.818v9.8h.675v-9.8h4.839a6.084,6.084,0,0,0,5.815,4.72v5.083h.675v-5.13a6.073,6.073,0,0,0,5.355-4.673h5.345v9.8h.677v-9.8h6.772V136.2H95.146v-9.586ZM74.451,136.2H69.706v-9.586H74.5a5.946,5.946,0,0,0,1.313,5.021,6.041,6.041,0,0,0-1.427,3.887A5.9,5.9,0,0,0,74.451,136.2Zm6.016,4.733a5.393,5.393,0,0,1-3.961-9.07l.211-.228-.211-.228a5.409,5.409,0,1,1,7.922,0l-.213.228.213.228a5.393,5.393,0,0,1-3.961,9.07Zm14-4.733H86.484a5.9,5.9,0,0,0,.07-.678,6.041,6.041,0,0,0-1.427-3.887,5.946,5.946,0,0,0,1.313-5.021h8.03Z" transform="translate(-62.213 -117.384)" fill="#fff"/>
  </g>
</svg>
