<svg xmlns="http://www.w3.org/2000/svg" width="40.22" height="26.351" viewBox="0 0 40.22 26.351">
  <g id="uzbekistan" transform="translate(0 -88.276)">
    <path id="Path_26620" data-name="Path 26620" d="M37.208,88.276H3.012A3.012,3.012,0,0,0,0,91.288V96.28H40.22V91.288A3.012,3.012,0,0,0,37.208,88.276Z" fill="#82afff"/>
    <path id="Path_26621" data-name="Path 26621" d="M0,326.831a3.012,3.012,0,0,0,3.012,3.012h34.2a3.012,3.012,0,0,0,3.012-3.012V321.84H0Z" transform="translate(0 -215.216)" fill="#73af00"/>
    <rect id="Rectangle_17296" data-name="Rectangle 17296" width="40.22" height="8.153" transform="translate(0 97.375)" fill="#f5f5f5"/>
    <g id="Group_15083" data-name="Group 15083" transform="translate(0 96.279)">
      <path id="Path_26622" data-name="Path 26622" d="M0,190.939v.315H40.22v-1.1H0Z" transform="translate(0 -190.159)" fill="#ff4b55"/>
      <path id="Path_26623" data-name="Path 26623" d="M0,308.213v.78H40.22v-1.1H0Z" transform="translate(0 -298.649)" fill="#ff4b55"/>
    </g>
    <g id="Group_15084" data-name="Group 15084" transform="translate(4.444 89.211)">
      <path id="Path_26624" data-name="Path 26624" d="M61.038,105.821a2.568,2.568,0,1,1,0-5.135h.016a.079.079,0,0,0,.039-.149,3.047,3.047,0,0,0-1.466-.363,3.08,3.08,0,0,0,.022,6.16,3.056,3.056,0,0,0,1.447-.363.079.079,0,0,0-.04-.149Z" transform="translate(-56.567 -100.173)" fill="#f5f5f5"/>
      <path id="Path_26625" data-name="Path 26625" d="M132.94,162.658l-.115.344-.363,0a.049.049,0,0,0-.029.088l.292.216-.11.346a.049.049,0,0,0,.075.055l.3-.211.3.211a.049.049,0,0,0,.075-.055l-.11-.346.292-.216a.049.049,0,0,0-.029-.088l-.363,0-.115-.344A.049.049,0,0,0,132.94,162.658Z" transform="translate(-126.456 -157.719)" fill="#f5f5f5"/>
      <path id="Path_26626" data-name="Path 26626" d="M165.483,162.658l-.115.344-.363,0a.049.049,0,0,0-.029.088l.292.216-.109.346a.049.049,0,0,0,.075.055l.3-.211.3.211a.049.049,0,0,0,.075-.055l-.11-.346.292-.216a.049.049,0,0,0-.029-.088l-.363,0-.115-.344A.049.049,0,0,0,165.483,162.658Z" transform="translate(-156.443 -157.719)" fill="#f5f5f5"/>
      <path id="Path_26627" data-name="Path 26627" d="M198.025,162.658l-.115.344-.363,0a.049.049,0,0,0-.029.088l.292.216-.11.346a.049.049,0,0,0,.075.055l.3-.211.3.211a.049.049,0,0,0,.075-.055l-.109-.346.292-.216a.049.049,0,0,0-.029-.088l-.363,0-.115-.344A.049.049,0,0,0,198.025,162.658Z" transform="translate(-186.428 -157.719)" fill="#f5f5f5"/>
      <path id="Path_26628" data-name="Path 26628" d="M230.567,162.658l-.115.344-.363,0a.049.049,0,0,0-.029.088l.292.216-.109.346a.049.049,0,0,0,.075.055l.3-.211.3.211a.049.049,0,0,0,.075-.055l-.109-.346.292-.216a.049.049,0,0,0-.029-.088l-.363,0-.115-.344A.049.049,0,0,0,230.567,162.658Z" transform="translate(-216.414 -157.719)" fill="#f5f5f5"/>
      <path id="Path_26629" data-name="Path 26629" d="M263.11,162.658,263,163l-.363,0a.049.049,0,0,0-.029.088l.292.216-.11.346a.049.049,0,0,0,.075.055l.3-.211.3.211a.049.049,0,0,0,.075-.055l-.11-.346.292-.216a.049.049,0,0,0-.029-.088l-.363,0-.115-.344A.049.049,0,0,0,263.11,162.658Z" transform="translate(-246.4 -157.719)" fill="#f5f5f5"/>
      <path id="Path_26630" data-name="Path 26630" d="M165.483,132.285l-.115.344-.363,0a.049.049,0,0,0-.029.088l.292.216-.109.346a.049.049,0,0,0,.075.055l.3-.211.3.211a.049.049,0,0,0,.075-.055l-.11-.346.292-.216a.049.049,0,0,0-.029-.088l-.363,0-.115-.344A.049.049,0,0,0,165.483,132.285Z" transform="translate(-156.443 -129.731)" fill="#f5f5f5"/>
      <path id="Path_26631" data-name="Path 26631" d="M198.025,132.285l-.115.344-.363,0a.049.049,0,0,0-.029.088l.292.216-.11.346a.049.049,0,0,0,.075.055l.3-.211.3.211a.049.049,0,0,0,.075-.055l-.109-.346.292-.216a.049.049,0,0,0-.029-.088l-.363,0-.115-.344A.049.049,0,0,0,198.025,132.285Z" transform="translate(-186.428 -129.731)" fill="#f5f5f5"/>
      <path id="Path_26632" data-name="Path 26632" d="M230.567,132.285l-.115.344-.363,0a.049.049,0,0,0-.029.088l.292.216-.109.346a.049.049,0,0,0,.075.055l.3-.211.3.211a.049.049,0,0,0,.075-.055l-.109-.346.292-.216a.049.049,0,0,0-.029-.088l-.363,0-.115-.344A.049.049,0,0,0,230.567,132.285Z" transform="translate(-216.414 -129.731)" fill="#f5f5f5"/>
      <path id="Path_26633" data-name="Path 26633" d="M263.11,132.285l-.115.344-.363,0a.049.049,0,0,0-.029.088l.292.216-.11.346a.049.049,0,0,0,.075.055l.3-.211.3.211a.049.049,0,0,0,.075-.055l-.11-.346.292-.216a.049.049,0,0,0-.029-.088l-.363,0-.115-.344A.049.049,0,0,0,263.11,132.285Z" transform="translate(-246.4 -129.731)" fill="#f5f5f5"/>
      <path id="Path_26634" data-name="Path 26634" d="M198.025,162.658l-.115.344-.363,0a.049.049,0,0,0-.029.088l.292.216-.11.346a.049.049,0,0,0,.075.055l.3-.211.3.211a.049.049,0,0,0,.075-.055l-.109-.346.292-.216a.049.049,0,0,0-.029-.088l-.363,0-.115-.344A.049.049,0,0,0,198.025,162.658Z" transform="translate(-186.428 -157.719)" fill="#f5f5f5"/>
      <path id="Path_26635" data-name="Path 26635" d="M198.025,101.912l-.115.344-.363,0a.049.049,0,0,0-.029.088l.292.216-.11.346a.049.049,0,0,0,.075.055l.3-.211.3.211a.049.049,0,0,0,.075-.055l-.109-.346.292-.216a.049.049,0,0,0-.029-.088l-.363,0-.115-.344A.049.049,0,0,0,198.025,101.912Z" transform="translate(-186.428 -101.745)" fill="#f5f5f5"/>
      <path id="Path_26636" data-name="Path 26636" d="M230.567,162.658l-.115.344-.363,0a.049.049,0,0,0-.029.088l.292.216-.109.346a.049.049,0,0,0,.075.055l.3-.211.3.211a.049.049,0,0,0,.075-.055l-.109-.346.292-.216a.049.049,0,0,0-.029-.088l-.363,0-.115-.344A.049.049,0,0,0,230.567,162.658Z" transform="translate(-216.414 -157.719)" fill="#f5f5f5"/>
      <path id="Path_26637" data-name="Path 26637" d="M263.11,162.658,263,163l-.363,0a.049.049,0,0,0-.029.088l.292.216-.11.346a.049.049,0,0,0,.075.055l.3-.211.3.211a.049.049,0,0,0,.075-.055l-.11-.346.292-.216a.049.049,0,0,0-.029-.088l-.363,0-.115-.344A.049.049,0,0,0,263.11,162.658Z" transform="translate(-246.4 -157.719)" fill="#f5f5f5"/>
      <path id="Path_26638" data-name="Path 26638" d="M230.567,101.912l-.115.344-.363,0a.049.049,0,0,0-.029.088l.292.216-.109.346a.049.049,0,0,0,.075.055l.3-.211.3.211a.049.049,0,0,0,.075-.055l-.109-.346.292-.216a.049.049,0,0,0-.029-.088l-.363,0-.115-.344A.049.049,0,0,0,230.567,101.912Z" transform="translate(-216.414 -101.745)" fill="#f5f5f5"/>
      <path id="Path_26639" data-name="Path 26639" d="M263.11,101.912l-.115.344-.363,0a.049.049,0,0,0-.029.088l.292.216-.11.346a.049.049,0,0,0,.075.055l.3-.211.3.211a.049.049,0,0,0,.075-.055l-.11-.346.292-.216a.049.049,0,0,0-.029-.088l-.363,0-.115-.344A.049.049,0,0,0,263.11,101.912Z" transform="translate(-246.4 -101.745)" fill="#f5f5f5"/>
    </g>
  </g>
</svg>
